<svg width="29" height="26" viewBox="0 0 29 26" fill="none" xmlns="http://www.w3.org/2000/svg">
<path d="M25.8194 13V18.4166C25.8194 21.6666 23.4722 23.8333 19.9513 23.8333H8.21522C4.69439 23.8333 2.34717 21.6666 2.34717 18.4166V13C2.34717 10.0533 4.27189 7.99498 7.2646 7.64831C7.56974 7.60498 7.88661 7.58331 8.21522 7.58331H19.9513C20.2565 7.58331 20.5499 7.59413 20.8315 7.63747C23.8595 7.96247 25.8194 10.0316 25.8194 13Z" fill="#007AFF" stroke="#007AFF" stroke-width="1.5" stroke-linecap="round" stroke-linejoin="round"/>
<path d="M8.47871 3.37588V3.37588C10.2796 8.56167 17.494 8.92856 19.9892 3.96125L20.2879 3.36658" stroke="#007AFF"/>
<path d="M8.88625 17.208H11.3502V18H7.97425V12.816H8.88625V17.208ZM12.5194 13.816C12.4181 13.816 12.3221 13.792 12.2314 13.744C12.1461 13.6907 12.0768 13.6213 12.0234 13.536C11.9701 13.4453 11.9434 13.3493 11.9434 13.248C11.9434 13.1467 11.9701 13.0533 12.0234 12.968C12.0768 12.8773 12.1461 12.8053 12.2314 12.752C12.3221 12.6987 12.4181 12.672 12.5194 12.672C12.6261 12.672 12.7248 12.6987 12.8154 12.752C12.9061 12.8053 12.9781 12.8773 13.0314 12.968C13.0848 13.0533 13.1114 13.1467 13.1114 13.248C13.1114 13.3493 13.0848 13.4453 13.0314 13.536C12.9781 13.6213 12.9061 13.6907 12.8154 13.744C12.7248 13.792 12.6261 13.816 12.5194 13.816ZM12.1034 18V14.464L12.9674 14.376V18H12.1034ZM17.2455 14.456V14.504L15.8695 18H15.0375L13.6295 14.504V14.456H14.5655L15.3095 16.56C15.3842 16.768 15.4402 16.96 15.4775 17.136C15.4882 17.088 15.5068 17.0187 15.5335 16.928C15.5602 16.832 15.5948 16.7093 15.6375 16.56L16.3095 14.456H17.2455ZM20.8116 15.864C20.8116 16.0293 20.8036 16.208 20.7876 16.4H18.4036C18.425 16.752 18.5236 17.0107 18.6996 17.176C18.881 17.3413 19.105 17.424 19.3716 17.424C19.5636 17.424 19.737 17.4 19.8916 17.352C20.0463 17.2987 20.2223 17.216 20.4196 17.104L20.7236 17.664C20.5316 17.7973 20.3156 17.904 20.0756 17.984C19.841 18.064 19.585 18.104 19.3076 18.104C18.9663 18.104 18.6623 18.0427 18.3956 17.92C18.1343 17.7973 17.9263 17.6 17.7716 17.328C17.617 17.056 17.5396 16.704 17.5396 16.272C17.5396 15.8987 17.6063 15.568 17.7396 15.28C17.873 14.9867 18.0703 14.7573 18.3316 14.592C18.593 14.4267 18.9076 14.344 19.2756 14.344C19.6063 14.344 19.8863 14.4107 20.1156 14.544C20.345 14.672 20.5183 14.8533 20.6356 15.088C20.753 15.3173 20.8116 15.576 20.8116 15.864ZM19.2836 14.968C19.049 14.968 18.8623 15.04 18.7236 15.184C18.585 15.328 18.4916 15.5333 18.4436 15.8H19.9796V15.776C19.9796 15.4987 19.9156 15.296 19.7876 15.168C19.665 15.0347 19.497 14.968 19.2836 14.968Z" fill="white"/>
</svg>
