<svg width="20" height="27" viewBox="0 0 20 27" fill="none" xmlns="http://www.w3.org/2000/svg">
<path d="M2.5 2.5H18V23.5L10 19L2 23.5L2.5 2.5Z" fill="#2474CC"/>
<path fill-rule="evenodd" clip-rule="evenodd" d="M8.77417 19.1791C9.55881 18.7195 10.5163 18.721 11.2996 19.183L17.4258 22.7967V5.67941C17.4258 4.50507 17.0796 4.06996 16.7885 3.83702C16.3773 3.50807 15.5502 3.18806 14.0942 3.18806H5.90968C4.49147 3.18806 3.62919 3.4891 3.18707 3.8198C2.88541 4.04543 2.57419 4.41761 2.57419 5.43283V22.8108L8.77417 19.1791ZM18.1768 26.327L10.0335 21.5235L1.81935 26.3351C1.00516 26.812 0 26.1976 0 25.2221V5.43283C0 1.88109 2.53161 0.5 5.90968 0.5H14.0942C17.5794 0.5 20 1.98214 20 5.67941V25.2154C20 26.1922 18.9923 26.8066 18.1768 26.327Z" fill="#007AFF"/>
</svg>
