<svg width="100" height="100" viewBox="0 0 100 100" fill="none" xmlns="http://www.w3.org/2000/svg">
<circle cx="50" cy="50" r="45.5" stroke="#0073F1" stroke-width="9"/>
<path d="M32.6425 53.6033C31.0425 53.6033 29.6825 53.1873 28.5625 52.3553L29.5865 50.7713C30.5785 51.4006 31.5492 51.7153 32.4985 51.7153C33.1065 51.7153 33.5812 51.6193 33.9225 51.4273C34.2745 51.2353 34.4505 50.9473 34.4505 50.5633C34.4505 50.3286 34.3919 50.1366 34.2745 49.9873C34.1679 49.8273 33.9705 49.678 33.6825 49.5393C33.4052 49.39 32.9839 49.2033 32.4185 48.9793L32.0505 48.8353C31.3679 48.5686 30.8185 48.3126 30.4025 48.0673C29.9865 47.822 29.6559 47.5073 29.4105 47.1233C29.1652 46.7393 29.0425 46.254 29.0425 45.6673C29.0425 45.0166 29.2292 44.478 29.6025 44.0513C29.9759 43.614 30.4559 43.294 31.0425 43.0913C31.6292 42.8886 32.2532 42.7873 32.9145 42.7873C33.5119 42.7873 34.1252 42.8886 34.7545 43.0913C35.3945 43.2833 36.0025 43.5713 36.5785 43.9553L35.5385 45.5233C35.0265 45.214 34.5732 44.99 34.1785 44.8513C33.7839 44.7126 33.3572 44.6433 32.8985 44.6433C32.3865 44.6433 31.9972 44.7286 31.7305 44.8993C31.4745 45.07 31.3465 45.2993 31.3465 45.5873C31.3465 45.7686 31.3999 45.934 31.5065 46.0833C31.6132 46.222 31.8052 46.366 32.0825 46.5153C32.3599 46.654 32.7599 46.8193 33.2825 47.0113L33.6345 47.1393C34.3172 47.3953 34.8665 47.6353 35.2825 47.8593C35.7092 48.0833 36.0665 48.4033 36.3545 48.8193C36.6425 49.2353 36.7865 49.774 36.7865 50.4353C36.7865 51.1286 36.6052 51.7153 36.2425 52.1953C35.8799 52.6646 35.3839 53.0166 34.7545 53.2513C34.1359 53.486 33.4319 53.6033 32.6425 53.6033ZM39.037 45.1073C38.7917 45.1073 38.5624 45.0486 38.349 44.9313C38.1357 44.8033 37.965 44.638 37.837 44.4353C37.709 44.2326 37.645 44.0086 37.645 43.7633C37.645 43.518 37.709 43.294 37.837 43.0913C37.965 42.878 38.1357 42.7126 38.349 42.5953C38.5624 42.4673 38.7917 42.4033 39.037 42.4033C39.293 42.4033 39.5277 42.4673 39.741 42.5953C39.965 42.7126 40.141 42.878 40.269 43.0913C40.397 43.294 40.461 43.518 40.461 43.7633C40.461 44.0086 40.397 44.2326 40.269 44.4353C40.141 44.638 39.965 44.8033 39.741 44.9313C39.5277 45.0486 39.293 45.1073 39.037 45.1073ZM37.981 53.3793V46.2273L40.157 46.0193V53.3793H37.981ZM46.0788 51.9073C46.7188 51.9606 47.2521 52.0566 47.6788 52.1953C48.1161 52.334 48.4521 52.5473 48.6868 52.8353C48.9321 53.1126 49.0548 53.486 49.0548 53.9553C49.0548 54.4886 48.8841 54.9526 48.5428 55.3473C48.2121 55.742 47.7321 56.046 47.1028 56.2593C46.4841 56.4726 45.7535 56.5793 44.9108 56.5793C43.8228 56.5793 42.9268 56.4086 42.2228 56.0673C41.5188 55.7366 41.1668 55.2246 41.1668 54.5313C41.1668 54.1366 41.2681 53.8006 41.4708 53.5233C41.6735 53.2566 41.9455 53.0273 42.2868 52.8353C41.9988 52.6006 41.8548 52.3126 41.8548 51.9713C41.8548 51.758 41.9188 51.55 42.0468 51.3473C42.1855 51.1446 42.4095 50.9366 42.7188 50.7233C42.2815 50.4993 41.9508 50.206 41.7268 49.8433C41.5135 49.47 41.4068 49.054 41.4068 48.5953C41.4068 47.9873 41.5721 47.486 41.9028 47.0913C42.2335 46.6966 42.6708 46.4086 43.2148 46.2273C43.7588 46.0353 44.3561 45.9393 45.0068 45.9393C45.3801 45.9393 45.6895 45.966 45.9348 46.0193L48.4628 44.9473L49.0868 46.6273L47.5828 46.9793C48.1268 47.3953 48.3988 47.9553 48.3988 48.6593C48.3988 49.246 48.2335 49.726 47.9028 50.0993C47.5721 50.462 47.1401 50.7286 46.6068 50.8993C46.0735 51.07 45.4921 51.1553 44.8628 51.1553C44.5748 51.1553 44.3028 51.1393 44.0468 51.1073C43.9828 51.214 43.9508 51.3046 43.9508 51.3793C43.9508 51.4646 43.9775 51.534 44.0308 51.5873C44.0948 51.6406 44.2015 51.6886 44.3508 51.7313C44.5108 51.7633 44.7348 51.79 45.0228 51.8113L46.0788 51.9073ZM44.9108 47.4913C44.0361 47.4913 43.5988 47.854 43.5988 48.5793C43.5988 48.942 43.7108 49.2086 43.9348 49.3793C44.1695 49.5393 44.5108 49.6193 44.9588 49.6193C45.4068 49.6193 45.7268 49.534 45.9188 49.3633C46.1215 49.182 46.2228 48.9206 46.2228 48.5793C46.2228 48.2273 46.1108 47.9606 45.8868 47.7793C45.6628 47.5873 45.3375 47.4913 44.9108 47.4913ZM44.9428 55.0593C45.4975 55.0593 45.9241 54.99 46.2228 54.8513C46.5321 54.7126 46.6868 54.5206 46.6868 54.2753C46.6868 54.126 46.6388 54.0086 46.5428 53.9233C46.4575 53.838 46.3028 53.7686 46.0788 53.7153C45.8655 53.662 45.5561 53.614 45.1508 53.5713L44.2228 53.4913C44.0628 53.4806 43.8335 53.4433 43.5348 53.3793C43.4388 53.5286 43.3641 53.678 43.3108 53.8273C43.2575 53.9766 43.2308 54.11 43.2308 54.2273C43.2308 54.5046 43.3535 54.7126 43.5988 54.8513C43.8441 54.99 44.2921 55.0593 44.9428 55.0593ZM54.5359 45.9393C55.2719 45.9393 55.8266 46.126 56.1999 46.4993C56.5733 46.862 56.7599 47.3953 56.7599 48.0993V53.3793H54.5839V48.7393C54.5839 48.4406 54.5519 48.2113 54.4879 48.0513C54.4346 47.8806 54.3386 47.758 54.1999 47.6833C54.0613 47.6086 53.8639 47.5713 53.6079 47.5713C53.1813 47.5713 52.6799 47.742 52.1039 48.0833V53.3793H49.9279V46.2273L52.1039 46.0193V46.7233C52.4986 46.478 52.8933 46.286 53.2879 46.1473C53.6933 46.0086 54.1093 45.9393 54.5359 45.9393Z" fill="#6F6F6F"/>
<path d="M64.0425 43.0113H66.3625V43.1393L62.5705 53.3793H60.0585L56.2505 43.1393V43.0113H58.6505L61.3545 51.0913L64.0425 43.0113ZM69.3575 53.6033C68.5575 53.6033 67.8749 53.4326 67.3095 53.0913C66.7549 52.75 66.3389 52.2913 66.0615 51.7153C65.7842 51.1286 65.6455 50.478 65.6455 49.7633C65.6455 48.846 65.8215 48.1046 66.1735 47.5393C66.5362 46.974 67.0109 46.5686 67.5975 46.3233C68.1842 46.0673 68.8402 45.9393 69.5655 45.9393C70.3762 45.9393 71.0589 46.1046 71.6135 46.4353C72.1789 46.7553 72.6002 47.2033 72.8775 47.7793C73.1549 48.3553 73.2935 49.022 73.2935 49.7793C73.2935 50.6646 73.1175 51.3953 72.7655 51.9713C72.4242 52.5366 71.9549 52.9526 71.3575 53.2193C70.7709 53.4753 70.1042 53.6033 69.3575 53.6033ZM69.4695 51.9873C70.0455 51.9873 70.4509 51.79 70.6855 51.3953C70.9202 50.99 71.0375 50.446 71.0375 49.7633C71.0375 49.038 70.9095 48.4886 70.6535 48.1153C70.4082 47.742 70.0242 47.5553 69.5015 47.5553C68.9362 47.5553 68.5255 47.742 68.2695 48.1153C68.0135 48.478 67.8855 49.0273 67.8855 49.7633C67.8855 50.4566 68.0135 51.0006 68.2695 51.3953C68.5362 51.79 68.9362 51.9873 69.4695 51.9873ZM78.6325 49.6193L81.0645 53.2513V53.3793H78.5045L77.1925 51.0433L75.7205 53.3793H73.3845V53.2513L75.8805 49.6673L73.5605 46.2913V46.1793H76.0885L77.3365 48.2913L78.5845 46.1793H80.8405V46.2913L78.6325 49.6193Z" fill="#0073F1"/>
<path d="M21.9267 49.569C21.9267 60.7575 34.9655 69.8276 34.9655 69.8276C24.4912 69.8276 16 60.7575 16 49.569C16 38.3804 24.4912 29.3103 34.9655 29.3103C34.9655 29.3103 21.9267 38.3804 21.9267 49.569Z" fill="#0073F1"/>
</svg>
