<svg width="100" height="100" viewBox="0 0 100 100" fill="none" xmlns="http://www.w3.org/2000/svg">
<circle cx="50" cy="50" r="45.5" stroke="#0073F1" stroke-width="9"/>
<path d="M32.6424 53.6033C31.0424 53.6033 29.6824 53.1873 28.5624 52.3553L29.5864 50.7713C30.5784 51.4006 31.549 51.7153 32.4984 51.7153C33.1064 51.7153 33.581 51.6193 33.9224 51.4273C34.2744 51.2353 34.4504 50.9473 34.4504 50.5633C34.4504 50.3286 34.3917 50.1366 34.2744 49.9873C34.1677 49.8273 33.9704 49.678 33.6824 49.5393C33.405 49.39 32.9837 49.2033 32.4184 48.9793L32.0504 48.8353C31.3677 48.5686 30.8184 48.3126 30.4024 48.0673C29.9864 47.822 29.6557 47.5073 29.4104 47.1233C29.165 46.7393 29.0424 46.254 29.0424 45.6673C29.0424 45.0166 29.229 44.478 29.6024 44.0513C29.9757 43.614 30.4557 43.294 31.0424 43.0913C31.629 42.8886 32.253 42.7873 32.9144 42.7873C33.5117 42.7873 34.125 42.8886 34.7544 43.0913C35.3944 43.2833 36.0024 43.5713 36.5784 43.9553L35.5384 45.5233C35.0264 45.214 34.573 44.99 34.1784 44.8513C33.7837 44.7126 33.357 44.6433 32.8984 44.6433C32.3864 44.6433 31.997 44.7286 31.7304 44.8993C31.4744 45.07 31.3464 45.2993 31.3464 45.5873C31.3464 45.7686 31.3997 45.934 31.5064 46.0833C31.613 46.222 31.805 46.366 32.0824 46.5153C32.3597 46.654 32.7597 46.8193 33.2824 47.0113L33.6344 47.1393C34.317 47.3953 34.8664 47.6353 35.2824 47.8593C35.709 48.0833 36.0664 48.4033 36.3544 48.8193C36.6424 49.2353 36.7864 49.774 36.7864 50.4353C36.7864 51.1286 36.605 51.7153 36.2424 52.1953C35.8797 52.6646 35.3837 53.0166 34.7544 53.2513C34.1357 53.486 33.4317 53.6033 32.6424 53.6033ZM39.0369 45.1073C38.7915 45.1073 38.5622 45.0486 38.3489 44.9313C38.1355 44.8033 37.9649 44.638 37.8369 44.4353C37.7089 44.2326 37.6449 44.0086 37.6449 43.7633C37.6449 43.518 37.7089 43.294 37.8369 43.0913C37.9649 42.878 38.1355 42.7126 38.3489 42.5953C38.5622 42.4673 38.7915 42.4033 39.0369 42.4033C39.2929 42.4033 39.5275 42.4673 39.7409 42.5953C39.9649 42.7126 40.1409 42.878 40.2689 43.0913C40.3969 43.294 40.4609 43.518 40.4609 43.7633C40.4609 44.0086 40.3969 44.2326 40.2689 44.4353C40.1409 44.638 39.9649 44.8033 39.7409 44.9313C39.5275 45.0486 39.2929 45.1073 39.0369 45.1073ZM37.9809 53.3793V46.2273L40.1569 46.0193V53.3793H37.9809ZM46.0786 51.9073C46.7186 51.9606 47.2519 52.0566 47.6786 52.1953C48.1159 52.334 48.4519 52.5473 48.6866 52.8353C48.9319 53.1126 49.0546 53.486 49.0546 53.9553C49.0546 54.4886 48.8839 54.9526 48.5426 55.3473C48.2119 55.742 47.7319 56.046 47.1026 56.2593C46.4839 56.4726 45.7533 56.5793 44.9106 56.5793C43.8226 56.5793 42.9266 56.4086 42.2226 56.0673C41.5186 55.7366 41.1666 55.2246 41.1666 54.5313C41.1666 54.1366 41.2679 53.8006 41.4706 53.5233C41.6733 53.2566 41.9453 53.0273 42.2866 52.8353C41.9986 52.6006 41.8546 52.3126 41.8546 51.9713C41.8546 51.758 41.9186 51.55 42.0466 51.3473C42.1853 51.1446 42.4093 50.9366 42.7186 50.7233C42.2813 50.4993 41.9506 50.206 41.7266 49.8433C41.5133 49.47 41.4066 49.054 41.4066 48.5953C41.4066 47.9873 41.5719 47.486 41.9026 47.0913C42.2333 46.6966 42.6706 46.4086 43.2146 46.2273C43.7586 46.0353 44.3559 45.9393 45.0066 45.9393C45.3799 45.9393 45.6893 45.966 45.9346 46.0193L48.4626 44.9473L49.0866 46.6273L47.5826 46.9793C48.1266 47.3953 48.3986 47.9553 48.3986 48.6593C48.3986 49.246 48.2333 49.726 47.9026 50.0993C47.5719 50.462 47.1399 50.7286 46.6066 50.8993C46.0733 51.07 45.4919 51.1553 44.8626 51.1553C44.5746 51.1553 44.3026 51.1393 44.0466 51.1073C43.9826 51.214 43.9506 51.3046 43.9506 51.3793C43.9506 51.4646 43.9773 51.534 44.0306 51.5873C44.0946 51.6406 44.2013 51.6886 44.3506 51.7313C44.5106 51.7633 44.7346 51.79 45.0226 51.8113L46.0786 51.9073ZM44.9106 47.4913C44.0359 47.4913 43.5986 47.854 43.5986 48.5793C43.5986 48.942 43.7106 49.2086 43.9346 49.3793C44.1693 49.5393 44.5106 49.6193 44.9586 49.6193C45.4066 49.6193 45.7266 49.534 45.9186 49.3633C46.1213 49.182 46.2226 48.9206 46.2226 48.5793C46.2226 48.2273 46.1106 47.9606 45.8866 47.7793C45.6626 47.5873 45.3373 47.4913 44.9106 47.4913ZM44.9426 55.0593C45.4973 55.0593 45.9239 54.99 46.2226 54.8513C46.5319 54.7126 46.6866 54.5206 46.6866 54.2753C46.6866 54.126 46.6386 54.0086 46.5426 53.9233C46.4573 53.838 46.3026 53.7686 46.0786 53.7153C45.8653 53.662 45.5559 53.614 45.1506 53.5713L44.2226 53.4913C44.0626 53.4806 43.8333 53.4433 43.5346 53.3793C43.4386 53.5286 43.3639 53.678 43.3106 53.8273C43.2573 53.9766 43.2306 54.11 43.2306 54.2273C43.2306 54.5046 43.3533 54.7126 43.5986 54.8513C43.8439 54.99 44.2919 55.0593 44.9426 55.0593ZM54.5357 45.9393C55.2717 45.9393 55.8264 46.126 56.1997 46.4993C56.5731 46.862 56.7597 47.3953 56.7597 48.0993V53.3793H54.5837V48.7393C54.5837 48.4406 54.5517 48.2113 54.4877 48.0513C54.4344 47.8806 54.3384 47.758 54.1997 47.6833C54.0611 47.6086 53.8637 47.5713 53.6077 47.5713C53.1811 47.5713 52.6797 47.742 52.1037 48.0833V53.3793H49.9277V46.2273L52.1037 46.0193V46.7233C52.4984 46.478 52.8931 46.286 53.2877 46.1473C53.6931 46.0086 54.1091 45.9393 54.5357 45.9393Z" fill="#6F6F6F"/>
<path d="M64.0424 43.0113H66.3624V43.1393L62.5704 53.3793H60.0584L56.2504 43.1393V43.0113H58.6504L61.3544 51.0913L64.0424 43.0113ZM69.3574 53.6033C68.5574 53.6033 67.8747 53.4326 67.3094 53.0913C66.7547 52.75 66.3387 52.2913 66.0614 51.7153C65.784 51.1286 65.6454 50.478 65.6454 49.7633C65.6454 48.846 65.8214 48.1046 66.1734 47.5393C66.536 46.974 67.0107 46.5686 67.5974 46.3233C68.184 46.0673 68.84 45.9393 69.5654 45.9393C70.376 45.9393 71.0587 46.1046 71.6134 46.4353C72.1787 46.7553 72.6 47.2033 72.8774 47.7793C73.1547 48.3553 73.2934 49.022 73.2934 49.7793C73.2934 50.6646 73.1174 51.3953 72.7654 51.9713C72.424 52.5366 71.9547 52.9526 71.3574 53.2193C70.7707 53.4753 70.104 53.6033 69.3574 53.6033ZM69.4694 51.9873C70.0454 51.9873 70.4507 51.79 70.6854 51.3953C70.92 50.99 71.0374 50.446 71.0374 49.7633C71.0374 49.038 70.9094 48.4886 70.6534 48.1153C70.408 47.742 70.024 47.5553 69.5014 47.5553C68.936 47.5553 68.5254 47.742 68.2694 48.1153C68.0134 48.478 67.8854 49.0273 67.8854 49.7633C67.8854 50.4566 68.0134 51.0006 68.2694 51.3953C68.536 51.79 68.936 51.9873 69.4694 51.9873ZM78.6324 49.6193L81.0644 53.2513V53.3793H78.5044L77.1924 51.0433L75.7204 53.3793H73.3844V53.2513L75.8804 49.6673L73.5604 46.2913V46.1793H76.0884L77.3364 48.2913L78.5844 46.1793H80.8404V46.2913L78.6324 49.6193Z" fill="#0073F1"/>
<path d="M21.9267 49.569C21.9267 60.7575 34.9655 69.8276 34.9655 69.8276C24.4912 69.8276 16 60.7575 16 49.569C16 38.3804 24.4912 29.3103 34.9655 29.3103C34.9655 29.3103 21.9267 38.3804 21.9267 49.569Z" fill="#0073F1"/>
</svg>
